<svg
        width="20"
        height="20"
        viewBox="0 0 20 20"
        fill="none"
        xmlns="http://www.w3.org/2000/svg"
    >
        <path
            d="M19 10H1M19 10C19 8.41797 18.5918 6.93127 17.875 5.63949C16.3397 2.87265 13.3885 1 10 1M19 10C19 11.582 18.5918 13.0687 17.875 14.3605C16.3397 17.1274 13.3885 19 10 19M10 19C10 19 6.625 19 6.625 10C6.625 1 10 1 10 1M10 19C10 19 13.375 19 13.375 10C13.375 1 10 1 10 1M10 19C6.61147 19 3.66032 17.1274 2.125 14.3605C1.40819 13.0687 1 11.582 1 10M1 10C1 8.41797 1.40819 6.93127 2.125 5.63949C3.66032 2.87265 6.61147 1 10 1"
            stroke="#56ab69"
            stroke-width="2"
        />
    </svg>